<?xml version="1.0" encoding="UTF-8" standalone="no"?>
<!DOCTYPE svg PUBLIC "-//W3C//DTD SVG 1.1//EN"
 "http://www.w3.org/Graphics/SVG/1.1/DTD/svg11.dtd">
<!-- Generated by graphviz version 13.1.0 (20250701.0955)
 -->
<!-- Title: interface/driver_sgp30_interface.h Pages: 1 -->
<svg width="659pt" height="176pt"
 viewBox="0.00 0.00 659.00 176.00" xmlns="http://www.w3.org/2000/svg" xmlns:xlink="http://www.w3.org/1999/xlink">
<g id="graph0" class="graph" transform="scale(1 1) rotate(0) translate(4 172)">
<title>interface/driver_sgp30_interface.h</title>
<!-- Node1 -->
<g id="Node000001" class="node">
<title>Node1</title>
<g id="a_Node000001"><a xlink:title="driver sgp30 interface header file">
<polygon fill="#999999" stroke="#666666" points="370.62,-168 258.62,-168 258.62,-136 370.62,-136 370.62,-168"/>
<text xml:space="preserve" text-anchor="start" x="266.62" y="-154.5" font-family="Helvetica,sans-Serif" font-size="10.00">interface/driver_sgp30</text>
<text xml:space="preserve" text-anchor="middle" x="314.62" y="-142.5" font-family="Helvetica,sans-Serif" font-size="10.00">_interface.h</text>
</a>
</g>
</g>
<!-- Node2 -->
<g id="Node000002" class="node">
<title>Node2</title>
<g id="a_Node000002"><a xlink:href="driver__sgp30__advance_8h.html" target="_top" xlink:title="driver sgp30 advance header file">
<polygon fill="white" stroke="#666666" points="111.25,-100 0,-100 0,-68 111.25,-68 111.25,-100"/>
<text xml:space="preserve" text-anchor="start" x="8" y="-86.5" font-family="Helvetica,sans-Serif" font-size="10.00">example/driver_sgp30</text>
<text xml:space="preserve" text-anchor="middle" x="55.62" y="-74.5" font-family="Helvetica,sans-Serif" font-size="10.00">_advance.h</text>
</a>
</g>
</g>
<!-- Node1&#45;&gt;Node2 -->
<g id="edge1_Node000001_Node000002" class="edge">
<title>Node1&#45;&gt;Node2</title>
<g id="a_edge1_Node000001_Node000002"><a xlink:title=" ">
<path fill="none" stroke="#63b8ff" d="M247.42,-133.87C205.27,-123.13 151.57,-109.45 111.71,-99.29"/>
<polygon fill="#63b8ff" stroke="#63b8ff" points="246.4,-137.23 256.96,-136.31 248.13,-130.44 246.4,-137.23"/>
</a>
</g>
</g>
<!-- Node4 -->
<g id="Node000004" class="node">
<title>Node4</title>
<g id="a_Node000004"><a xlink:href="driver__sgp30__basic_8h.html" target="_top" xlink:title="driver sgp30 basic header file">
<polygon fill="white" stroke="#666666" points="240.25,-100 129,-100 129,-68 240.25,-68 240.25,-100"/>
<text xml:space="preserve" text-anchor="start" x="137" y="-86.5" font-family="Helvetica,sans-Serif" font-size="10.00">example/driver_sgp30</text>
<text xml:space="preserve" text-anchor="middle" x="184.62" y="-74.5" font-family="Helvetica,sans-Serif" font-size="10.00">_basic.h</text>
</a>
</g>
</g>
<!-- Node1&#45;&gt;Node4 -->
<g id="edge3_Node000001_Node000004" class="edge">
<title>Node1&#45;&gt;Node4</title>
<g id="a_edge3_Node000001_Node000004"><a xlink:title=" ">
<path fill="none" stroke="#63b8ff" d="M273.93,-130.34C254.84,-120.65 232.48,-109.3 214.91,-100.38"/>
<polygon fill="#63b8ff" stroke="#63b8ff" points="272.3,-133.43 282.8,-134.84 275.46,-127.19 272.3,-133.43"/>
</a>
</g>
</g>
<!-- Node6 -->
<g id="Node000006" class="node">
<title>Node6</title>
<g id="a_Node000006"><a xlink:href="driver__sgp30__interface__template_8c.html" target="_top" xlink:title="driver sgp30 interface template source file">
<polygon fill="white" stroke="#666666" points="370.62,-100 258.62,-100 258.62,-68 370.62,-68 370.62,-100"/>
<text xml:space="preserve" text-anchor="start" x="266.62" y="-86.5" font-family="Helvetica,sans-Serif" font-size="10.00">interface/driver_sgp30</text>
<text xml:space="preserve" text-anchor="middle" x="314.62" y="-74.5" font-family="Helvetica,sans-Serif" font-size="10.00">_interface_template.c</text>
</a>
</g>
</g>
<!-- Node1&#45;&gt;Node6 -->
<g id="edge5_Node000001_Node000006" class="edge">
<title>Node1&#45;&gt;Node6</title>
<g id="a_edge5_Node000001_Node000006"><a xlink:title=" ">
<path fill="none" stroke="#63b8ff" d="M314.62,-124.31C314.62,-116.12 314.62,-107.38 314.62,-100.22"/>
<polygon fill="#63b8ff" stroke="#63b8ff" points="311.13,-124.18 314.63,-134.18 318.13,-124.18 311.13,-124.18"/>
</a>
</g>
</g>
<!-- Node7 -->
<g id="Node000007" class="node">
<title>Node7</title>
<g id="a_Node000007"><a xlink:href="driver__sgp30__read__test_8h.html" target="_top" xlink:title="driver sgp30 read test header file">
<polygon fill="white" stroke="#666666" points="504.12,-100 389.12,-100 389.12,-68 504.12,-68 504.12,-100"/>
<text xml:space="preserve" text-anchor="start" x="397.12" y="-86.5" font-family="Helvetica,sans-Serif" font-size="10.00">test/driver_sgp30_read</text>
<text xml:space="preserve" text-anchor="middle" x="446.62" y="-74.5" font-family="Helvetica,sans-Serif" font-size="10.00">_test.h</text>
</a>
</g>
</g>
<!-- Node1&#45;&gt;Node7 -->
<g id="edge6_Node000001_Node000007" class="edge">
<title>Node1&#45;&gt;Node7</title>
<g id="a_edge6_Node000001_Node000007"><a xlink:title=" ">
<path fill="none" stroke="#63b8ff" d="M355.68,-130.47C375.12,-120.75 397.95,-109.34 415.87,-100.38"/>
<polygon fill="#63b8ff" stroke="#63b8ff" points="354.31,-127.25 346.93,-134.85 357.44,-133.51 354.31,-127.25"/>
</a>
</g>
</g>
<!-- Node9 -->
<g id="Node000009" class="node">
<title>Node9</title>
<g id="a_Node000009"><a xlink:href="driver__sgp30__register__test_8h.html" target="_top" xlink:title="driver sgp30 register test header file">
<polygon fill="white" stroke="#666666" points="650.88,-100 522.38,-100 522.38,-68 650.88,-68 650.88,-100"/>
<text xml:space="preserve" text-anchor="start" x="530.38" y="-86.5" font-family="Helvetica,sans-Serif" font-size="10.00">test/driver_sgp30_register</text>
<text xml:space="preserve" text-anchor="middle" x="586.62" y="-74.5" font-family="Helvetica,sans-Serif" font-size="10.00">_test.h</text>
</a>
</g>
</g>
<!-- Node1&#45;&gt;Node9 -->
<g id="edge8_Node000001_Node000009" class="edge">
<title>Node1&#45;&gt;Node9</title>
<g id="a_edge8_Node000001_Node000009"><a xlink:title=" ">
<path fill="none" stroke="#63b8ff" d="M381.96,-134.66C425.13,-124.19 480.81,-110.67 523.2,-100.39"/>
<polygon fill="#63b8ff" stroke="#63b8ff" points="381.35,-131.21 372.45,-136.97 383,-138.01 381.35,-131.21"/>
</a>
</g>
</g>
<!-- Node3 -->
<g id="Node000003" class="node">
<title>Node3</title>
<g id="a_Node000003"><a xlink:href="driver__sgp30__advance_8c.html" target="_top" xlink:title="driver sgp30 advance source file">
<polygon fill="white" stroke="#666666" points="111.25,-32 0,-32 0,0 111.25,0 111.25,-32"/>
<text xml:space="preserve" text-anchor="start" x="8" y="-18.5" font-family="Helvetica,sans-Serif" font-size="10.00">example/driver_sgp30</text>
<text xml:space="preserve" text-anchor="middle" x="55.62" y="-6.5" font-family="Helvetica,sans-Serif" font-size="10.00">_advance.c</text>
</a>
</g>
</g>
<!-- Node2&#45;&gt;Node3 -->
<g id="edge2_Node000002_Node000003" class="edge">
<title>Node2&#45;&gt;Node3</title>
<g id="a_edge2_Node000002_Node000003"><a xlink:title=" ">
<path fill="none" stroke="#63b8ff" d="M55.62,-56.31C55.62,-48.12 55.62,-39.38 55.62,-32.22"/>
<polygon fill="#63b8ff" stroke="#63b8ff" points="52.13,-56.18 55.63,-66.18 59.13,-56.18 52.13,-56.18"/>
</a>
</g>
</g>
<!-- Node5 -->
<g id="Node000005" class="node">
<title>Node5</title>
<g id="a_Node000005"><a xlink:href="driver__sgp30__basic_8c.html" target="_top" xlink:title="driver sgp30 basic source file">
<polygon fill="white" stroke="#666666" points="240.25,-32 129,-32 129,0 240.25,0 240.25,-32"/>
<text xml:space="preserve" text-anchor="start" x="137" y="-18.5" font-family="Helvetica,sans-Serif" font-size="10.00">example/driver_sgp30</text>
<text xml:space="preserve" text-anchor="middle" x="184.62" y="-6.5" font-family="Helvetica,sans-Serif" font-size="10.00">_basic.c</text>
</a>
</g>
</g>
<!-- Node4&#45;&gt;Node5 -->
<g id="edge4_Node000004_Node000005" class="edge">
<title>Node4&#45;&gt;Node5</title>
<g id="a_edge4_Node000004_Node000005"><a xlink:title=" ">
<path fill="none" stroke="#63b8ff" d="M184.62,-56.31C184.62,-48.12 184.62,-39.38 184.62,-32.22"/>
<polygon fill="#63b8ff" stroke="#63b8ff" points="181.13,-56.18 184.63,-66.18 188.13,-56.18 181.13,-56.18"/>
</a>
</g>
</g>
<!-- Node8 -->
<g id="Node000008" class="node">
<title>Node8</title>
<g id="a_Node000008"><a xlink:href="driver__sgp30__read__test_8c.html" target="_top" xlink:title="driver sgp30 read test source file">
<polygon fill="white" stroke="#666666" points="504.12,-32 389.12,-32 389.12,0 504.12,0 504.12,-32"/>
<text xml:space="preserve" text-anchor="start" x="397.12" y="-18.5" font-family="Helvetica,sans-Serif" font-size="10.00">test/driver_sgp30_read</text>
<text xml:space="preserve" text-anchor="middle" x="446.62" y="-6.5" font-family="Helvetica,sans-Serif" font-size="10.00">_test.c</text>
</a>
</g>
</g>
<!-- Node7&#45;&gt;Node8 -->
<g id="edge7_Node000007_Node000008" class="edge">
<title>Node7&#45;&gt;Node8</title>
<g id="a_edge7_Node000007_Node000008"><a xlink:title=" ">
<path fill="none" stroke="#63b8ff" d="M446.62,-56.31C446.62,-48.12 446.62,-39.38 446.62,-32.22"/>
<polygon fill="#63b8ff" stroke="#63b8ff" points="443.13,-56.18 446.63,-66.18 450.13,-56.18 443.13,-56.18"/>
</a>
</g>
</g>
<!-- Node10 -->
<g id="Node000010" class="node">
<title>Node10</title>
<g id="a_Node000010"><a xlink:href="driver__sgp30__register__test_8c.html" target="_top" xlink:title="driver sgp30 register test source file">
<polygon fill="white" stroke="#666666" points="650.88,-32 522.38,-32 522.38,0 650.88,0 650.88,-32"/>
<text xml:space="preserve" text-anchor="start" x="530.38" y="-18.5" font-family="Helvetica,sans-Serif" font-size="10.00">test/driver_sgp30_register</text>
<text xml:space="preserve" text-anchor="middle" x="586.62" y="-6.5" font-family="Helvetica,sans-Serif" font-size="10.00">_test.c</text>
</a>
</g>
</g>
<!-- Node9&#45;&gt;Node10 -->
<g id="edge9_Node000009_Node000010" class="edge">
<title>Node9&#45;&gt;Node10</title>
<g id="a_edge9_Node000009_Node000010"><a xlink:title=" ">
<path fill="none" stroke="#63b8ff" d="M586.62,-56.31C586.62,-48.12 586.62,-39.38 586.62,-32.22"/>
<polygon fill="#63b8ff" stroke="#63b8ff" points="583.13,-56.18 586.63,-66.18 590.13,-56.18 583.13,-56.18"/>
</a>
</g>
</g>
</g>
</svg>
