<?xml version="1.0" encoding="UTF-8" standalone="no"?>
<!DOCTYPE svg PUBLIC "-//W3C//DTD SVG 1.1//EN"
 "http://www.w3.org/Graphics/SVG/1.1/DTD/svg11.dtd">
<!-- Generated by graphviz version 14.1.1 (20251213.1925)
 -->
<!-- Title: src/driver_sgp30.c Pages: 1 -->
<svg width="250pt" height="140pt"
 viewBox="0.00 0.00 250.00 140.00" xmlns="http://www.w3.org/2000/svg" xmlns:xlink="http://www.w3.org/1999/xlink">
<g id="graph0" class="graph" transform="scale(1 1) rotate(0) translate(4 136)">
<title>src/driver_sgp30.c</title>
<!-- Node1 -->
<g id="Node000001" class="node">
<title>Node1</title>
<g id="a_Node000001"><a xlink:title="driver sgp30 source file">
<polygon fill="#999999" stroke="#666666" points="105.12,-132 8.88,-132 8.88,-112 105.12,-112 105.12,-132"/>
<text xml:space="preserve" text-anchor="middle" x="57" y="-118.5" font-family="Helvetica,sans-Serif" font-size="10.00">src/driver_sgp30.c</text>
</a>
</g>
</g>
<!-- Node2 -->
<g id="Node000002" class="node">
<title>Node2</title>
<g id="a_Node000002"><a xlink:href="driver__sgp30_8h.html" target="_top" xlink:title="driver sgp30 header file">
<polygon fill="white" stroke="#666666" points="130.88,-76 51.12,-76 51.12,-56 130.88,-56 130.88,-76"/>
<text xml:space="preserve" text-anchor="middle" x="91" y="-62.5" font-family="Helvetica,sans-Serif" font-size="10.00">driver_sgp30.h</text>
</a>
</g>
</g>
<!-- Node1&#45;&gt;Node2 -->
<g id="edge1_Node000001_Node000002" class="edge">
<title>Node1&#45;&gt;Node2</title>
<g id="a_edge1_Node000001_Node000002"><a xlink:title=" ">
<path fill="none" stroke="#63b8ff" d="M62.92,-111.59C67.36,-104.55 73.58,-94.67 79.04,-86"/>
<polygon fill="#63b8ff" stroke="#63b8ff" points="81.97,-87.91 84.34,-77.58 76.05,-84.18 81.97,-87.91"/>
</a>
</g>
</g>
<!-- Node3 -->
<g id="Node000003" class="node">
<title>Node3</title>
<g id="a_Node000003"><a xlink:title=" ">
<polygon fill="#e0e0e0" stroke="#999999" points="46,-20 0,-20 0,0 46,0 46,-20"/>
<text xml:space="preserve" text-anchor="middle" x="23" y="-6.5" font-family="Helvetica,sans-Serif" font-size="10.00">math.h</text>
</a>
</g>
</g>
<!-- Node1&#45;&gt;Node3 -->
<g id="edge6_Node000001_Node000003" class="edge">
<title>Node1&#45;&gt;Node3</title>
<g id="a_edge6_Node000001_Node000003"><a xlink:title=" ">
<path fill="none" stroke="#63b8ff" d="M53.8,-111.72C50.69,-102.65 45.88,-88.42 42,-76 37.32,-61.03 32.36,-44.02 28.68,-31.15"/>
<polygon fill="#63b8ff" stroke="#63b8ff" points="32.11,-30.41 26.01,-21.75 25.37,-32.32 32.11,-30.41"/>
</a>
</g>
</g>
<!-- Node2&#45;&gt;Node3 -->
<g id="edge2_Node000002_Node000003" class="edge">
<title>Node2&#45;&gt;Node3</title>
<g id="a_edge2_Node000002_Node000003"><a xlink:title=" ">
<path fill="none" stroke="#63b8ff" d="M79.16,-55.59C69.31,-47.77 55.07,-36.46 43.39,-27.19"/>
<polygon fill="#63b8ff" stroke="#63b8ff" points="45.9,-24.72 35.89,-21.24 41.55,-30.2 45.9,-24.72"/>
</a>
</g>
</g>
<!-- Node4 -->
<g id="Node000004" class="node">
<title>Node4</title>
<g id="a_Node000004"><a xlink:title=" ">
<polygon fill="#e0e0e0" stroke="#999999" points="109.62,-20 64.38,-20 64.38,0 109.62,0 109.62,-20"/>
<text xml:space="preserve" text-anchor="middle" x="87" y="-6.5" font-family="Helvetica,sans-Serif" font-size="10.00">stdio.h</text>
</a>
</g>
</g>
<!-- Node2&#45;&gt;Node4 -->
<g id="edge3_Node000002_Node000004" class="edge">
<title>Node2&#45;&gt;Node4</title>
<g id="a_edge3_Node000002_Node000004"><a xlink:title=" ">
<path fill="none" stroke="#63b8ff" d="M90.3,-55.59C89.82,-49.01 89.15,-39.96 88.54,-31.73"/>
<polygon fill="#63b8ff" stroke="#63b8ff" points="92.03,-31.52 87.8,-21.81 85.05,-32.04 92.03,-31.52"/>
</a>
</g>
</g>
<!-- Node5 -->
<g id="Node000005" class="node">
<title>Node5</title>
<g id="a_Node000005"><a xlink:title=" ">
<polygon fill="#e0e0e0" stroke="#999999" points="176.12,-20 127.88,-20 127.88,0 176.12,0 176.12,-20"/>
<text xml:space="preserve" text-anchor="middle" x="152" y="-6.5" font-family="Helvetica,sans-Serif" font-size="10.00">stdint.h</text>
</a>
</g>
</g>
<!-- Node2&#45;&gt;Node5 -->
<g id="edge4_Node000002_Node000005" class="edge">
<title>Node2&#45;&gt;Node5</title>
<g id="a_edge4_Node000002_Node000005"><a xlink:title=" ">
<path fill="none" stroke="#63b8ff" d="M101.63,-55.59C110.28,-47.93 122.73,-36.91 133.08,-27.75"/>
<polygon fill="#63b8ff" stroke="#63b8ff" points="135.2,-30.55 140.36,-21.3 130.56,-25.31 135.2,-30.55"/>
</a>
</g>
</g>
<!-- Node6 -->
<g id="Node000006" class="node">
<title>Node6</title>
<g id="a_Node000006"><a xlink:title=" ">
<polygon fill="#e0e0e0" stroke="#999999" points="242.12,-20 193.88,-20 193.88,0 242.12,0 242.12,-20"/>
<text xml:space="preserve" text-anchor="middle" x="218" y="-6.5" font-family="Helvetica,sans-Serif" font-size="10.00">string.h</text>
</a>
</g>
</g>
<!-- Node2&#45;&gt;Node6 -->
<g id="edge5_Node000002_Node000006" class="edge">
<title>Node2&#45;&gt;Node6</title>
<g id="a_edge5_Node000002_Node000006"><a xlink:title=" ">
<path fill="none" stroke="#63b8ff" d="M113.12,-55.59C133.03,-47.13 162.55,-34.58 185.21,-24.94"/>
<polygon fill="#63b8ff" stroke="#63b8ff" points="186.48,-28.21 194.31,-21.07 183.74,-21.76 186.48,-28.21"/>
</a>
</g>
</g>
</g>
</svg>
