<?xml version="1.0" encoding="UTF-8" standalone="no"?>
<!DOCTYPE svg PUBLIC "-//W3C//DTD SVG 1.1//EN"
 "http://www.w3.org/Graphics/SVG/1.1/DTD/svg11.dtd">
<!-- Generated by graphviz version 13.1.0 (20250701.0955)
 -->
<!-- Title: sgp30 driver function Pages: 1 -->
<svg width="282pt" height="254pt"
 viewBox="0.00 0.00 282.00 254.00" xmlns="http://www.w3.org/2000/svg" xmlns:xlink="http://www.w3.org/1999/xlink">
<g id="graph0" class="graph" transform="scale(1 1) rotate(0) translate(4 250)">
<title>sgp30 driver function</title>
<!-- Node3 -->
<g id="Node000003" class="node">
<title>Node3</title>
<g id="a_Node000003"><a xlink:href="group__sgp30__base__driver.html" target="_top" xlink:title="sgp30 base driver modules">
<polygon fill="white" stroke="#666666" points="273.5,-246 142.75,-246 142.75,-226 273.5,-226 273.5,-246"/>
<text xml:space="preserve" text-anchor="middle" x="208.12" y="-232.5" font-family="Helvetica,sans-Serif" font-size="10.00">sgp30 base driver function</text>
</a>
</g>
</g>
<!-- Node1 -->
<g id="Node000001" class="node">
<title>Node1</title>
<g id="a_Node000001"><a xlink:title="sgp30 driver modules">
<polygon fill="#999999" stroke="#666666" points="106.75,-127 0,-127 0,-107 106.75,-107 106.75,-127"/>
<text xml:space="preserve" text-anchor="middle" x="53.38" y="-113.5" font-family="Helvetica,sans-Serif" font-size="10.00">sgp30 driver function</text>
</a>
</g>
</g>
<!-- Node1&#45;&gt;Node3 -->
<g id="edge2" class="edge">
<title>Node1&#45;&gt;Node3</title>
<path fill="none" stroke="black" d="M66.79,-136.78C82,-159.41 109.85,-196.05 142.75,-217 148.16,-220.44 154.21,-223.28 160.39,-225.62"/>
<polygon fill="black" stroke="black" points="69.77,-134.93 61.37,-128.46 63.9,-138.75 69.77,-134.93"/>
</g>
<!-- Node6 -->
<g id="Node000006" class="node">
<title>Node6</title>
<g id="a_Node000006"><a xlink:href="group__sgp30__example__driver.html" target="_top" xlink:title="sgp30 example driver modules">
<polygon fill="white" stroke="#666666" points="262.62,-208 153.62,-208 153.62,-176 262.62,-176 262.62,-208"/>
<text xml:space="preserve" text-anchor="start" x="161.62" y="-194.5" font-family="Helvetica,sans-Serif" font-size="10.00">sgp30 example driver</text>
<text xml:space="preserve" text-anchor="middle" x="208.12" y="-182.5" font-family="Helvetica,sans-Serif" font-size="10.00"> function</text>
</a>
</g>
</g>
<!-- Node1&#45;&gt;Node6 -->
<g id="edge5" class="edge">
<title>Node1&#45;&gt;Node6</title>
<path fill="none" stroke="black" d="M80.37,-133.02C97.7,-143.38 121.18,-156.77 142.75,-167 149.03,-169.98 155.77,-172.89 162.44,-175.61"/>
<polygon fill="black" stroke="black" points="82.6,-130.28 72.23,-128.11 78.98,-136.27 82.6,-130.28"/>
</g>
<!-- Node4 -->
<g id="Node000004" class="node">
<title>Node4</title>
<g id="a_Node000004"><a xlink:href="group__sgp30__extern__driver.html" target="_top" xlink:title="sgp30 extern driver modules">
<polygon fill="white" stroke="#666666" points="257.75,-158 158.5,-158 158.5,-126 257.75,-126 257.75,-158"/>
<text xml:space="preserve" text-anchor="start" x="166.5" y="-144.5" font-family="Helvetica,sans-Serif" font-size="10.00">sgp30 extern driver</text>
<text xml:space="preserve" text-anchor="middle" x="208.12" y="-132.5" font-family="Helvetica,sans-Serif" font-size="10.00"> function</text>
</a>
</g>
</g>
<!-- Node1&#45;&gt;Node4 -->
<g id="edge3" class="edge">
<title>Node1&#45;&gt;Node4</title>
<path fill="none" stroke="black" d="M118.02,-127.42C131.4,-129.61 145.31,-131.88 158.06,-133.97"/>
<polygon fill="black" stroke="black" points="118.87,-124.01 108.44,-125.85 117.74,-130.92 118.87,-124.01"/>
</g>
<!-- Node5 -->
<g id="Node000005" class="node">
<title>Node5</title>
<g id="a_Node000005"><a xlink:href="group__sgp30__interface__driver.html" target="_top" xlink:title="sgp30 interface driver modules">
<polygon fill="white" stroke="#666666" points="263,-108 153.25,-108 153.25,-76 263,-76 263,-108"/>
<text xml:space="preserve" text-anchor="start" x="161.25" y="-94.5" font-family="Helvetica,sans-Serif" font-size="10.00">sgp30 interface driver</text>
<text xml:space="preserve" text-anchor="middle" x="208.12" y="-82.5" font-family="Helvetica,sans-Serif" font-size="10.00"> function</text>
</a>
</g>
</g>
<!-- Node1&#45;&gt;Node5 -->
<g id="edge4" class="edge">
<title>Node1&#45;&gt;Node5</title>
<path fill="none" stroke="black" d="M118.29,-106.54C129.8,-104.66 141.7,-102.71 152.9,-100.87"/>
<polygon fill="black" stroke="black" points="117.74,-103.08 108.44,-108.15 118.87,-109.99 117.74,-103.08"/>
</g>
<!-- Node2 -->
<g id="Node000002" class="node">
<title>Node2</title>
<g id="a_Node000002"><a xlink:href="group__sgp30__link__driver.html" target="_top" xlink:title="sgp30 link driver modules">
<polygon fill="white" stroke="#666666" points="270.5,-58 145.75,-58 145.75,-38 270.5,-38 270.5,-58"/>
<text xml:space="preserve" text-anchor="middle" x="208.12" y="-44.5" font-family="Helvetica,sans-Serif" font-size="10.00">sgp30 link driver function</text>
</a>
</g>
</g>
<!-- Node1&#45;&gt;Node2 -->
<g id="edge1" class="edge">
<title>Node1&#45;&gt;Node2</title>
<path fill="none" stroke="black" d="M79.46,-100.76C96.74,-90.1 120.5,-76.43 142.75,-67 150.26,-63.82 158.48,-60.95 166.45,-58.47"/>
<polygon fill="black" stroke="black" points="77.99,-97.55 71.38,-105.84 81.71,-103.48 77.99,-97.55"/>
</g>
<!-- Node7 -->
<g id="Node000007" class="node">
<title>Node7</title>
<g id="a_Node000007"><a xlink:href="group__sgp30__test__driver.html" target="_top" xlink:title="sgp30 test driver modules">
<polygon fill="white" stroke="#666666" points="271.25,-20 145,-20 145,0 271.25,0 271.25,-20"/>
<text xml:space="preserve" text-anchor="middle" x="208.12" y="-6.5" font-family="Helvetica,sans-Serif" font-size="10.00">sgp30 test driver function</text>
</a>
</g>
</g>
<!-- Node1&#45;&gt;Node7 -->
<g id="edge6" class="edge">
<title>Node1&#45;&gt;Node7</title>
<path fill="none" stroke="black" d="M68.79,-97.83C84.77,-77.86 112.34,-47.03 142.75,-29 148.46,-25.61 154.82,-22.79 161.26,-20.45"/>
<polygon fill="black" stroke="black" points="66.23,-95.42 62.84,-105.46 71.75,-99.72 66.23,-95.42"/>
</g>
</g>
</svg>
