<?xml version="1.0" encoding="UTF-8" standalone="no"?>
<!DOCTYPE svg PUBLIC "-//W3C//DTD SVG 1.1//EN"
 "http://www.w3.org/Graphics/SVG/1.1/DTD/svg11.dtd">
<!-- Generated by graphviz version 13.1.0 (20250701.0955)
 -->
<!-- Title: sgp30_basic_init Pages: 1 -->
<svg width="392pt" height="418pt"
 viewBox="0.00 0.00 392.00 418.00" xmlns="http://www.w3.org/2000/svg" xmlns:xlink="http://www.w3.org/1999/xlink">
<g id="graph0" class="graph" transform="scale(1 1) rotate(0) translate(4 414)">
<title>sgp30_basic_init</title>
<!-- Node1 -->
<g id="Node000001" class="node">
<title>Node1</title>
<g id="a_Node000001"><a xlink:title="basic example init">
<polygon fill="#999999" stroke="#666666" points="88.75,-230 0,-230 0,-210 88.75,-210 88.75,-230"/>
<text xml:space="preserve" text-anchor="middle" x="44.38" y="-216.5" font-family="Helvetica,sans-Serif" font-size="10.00">sgp30_basic_init</text>
</a>
</g>
</g>
<!-- Node2 -->
<g id="Node000002" class="node">
<title>Node2</title>
<g id="a_Node000002"><a xlink:href="group__sgp30__base__driver.html#ga3e76808777df8bc665ef7d0a2f577545" target="_top" xlink:title="close the chip">
<polygon fill="white" stroke="#666666" points="226.25,-410 155.5,-410 155.5,-390 226.25,-390 226.25,-410"/>
<text xml:space="preserve" text-anchor="middle" x="190.88" y="-396.5" font-family="Helvetica,sans-Serif" font-size="10.00">sgp30_deinit</text>
</a>
</g>
</g>
<!-- Node1&#45;&gt;Node2 -->
<g id="edge1_Node000001_Node000002" class="edge">
<title>Node1&#45;&gt;Node2</title>
<g id="a_edge1_Node000001_Node000002"><a xlink:title=" ">
<path fill="none" stroke="#63b8ff" d="M47.82,-230.37C54.85,-258.01 77.73,-334.21 124.75,-376 130.5,-381.11 137.43,-385.16 144.59,-388.37"/>
<polygon fill="#63b8ff" stroke="#63b8ff" points="143.15,-391.56 153.74,-391.94 145.7,-385.04 143.15,-391.56"/>
</a>
</g>
</g>
<!-- Node3 -->
<g id="Node000003" class="node">
<title>Node3</title>
<g id="a_Node000003"><a xlink:href="group__sgp30__base__driver.html#gadb2f24c981a20bed9fd9bc0a0f1a11ad" target="_top" xlink:title="soft reset the chip">
<polygon fill="white" stroke="#666666" points="384,-391 293,-391 293,-371 384,-371 384,-391"/>
<text xml:space="preserve" text-anchor="middle" x="338.5" y="-377.5" font-family="Helvetica,sans-Serif" font-size="10.00">sgp30_soft_reset</text>
</a>
</g>
</g>
<!-- Node1&#45;&gt;Node3 -->
<g id="edge11_Node000001_Node000003" class="edge">
<title>Node1&#45;&gt;Node3</title>
<g id="a_edge11_Node000001_Node000003"><a xlink:title=" ">
<path fill="none" stroke="#63b8ff" d="M48.78,-230.31C57.3,-254.42 82.01,-314.56 124.75,-343 149.9,-359.74 227.6,-370.46 281.78,-376.1"/>
<polygon fill="#63b8ff" stroke="#63b8ff" points="281.15,-379.56 291.46,-377.08 281.86,-372.59 281.15,-379.56"/>
</a>
</g>
</g>
<!-- Node4 -->
<g id="Node000004" class="node">
<title>Node4</title>
<g id="a_Node000004"><a xlink:href="group__sgp30__base__driver.html#gae910b4ed6af6de8d662e430b00d15bdd" target="_top" xlink:title="initialize the chip iaq">
<polygon fill="white" stroke="#666666" points="230,-334 151.75,-334 151.75,-314 230,-314 230,-334"/>
<text xml:space="preserve" text-anchor="middle" x="190.88" y="-320.5" font-family="Helvetica,sans-Serif" font-size="10.00">sgp30_iaq_init</text>
</a>
</g>
</g>
<!-- Node1&#45;&gt;Node4 -->
<g id="edge3_Node000001_Node000004" class="edge">
<title>Node1&#45;&gt;Node4</title>
<g id="a_edge3_Node000001_Node000004"><a xlink:title=" ">
<path fill="none" stroke="#63b8ff" d="M52.16,-230.31C64.48,-248.2 92.25,-285 124.75,-305 129.7,-308.05 135.16,-310.63 140.76,-312.8"/>
<polygon fill="#63b8ff" stroke="#63b8ff" points="139.55,-316.09 150.14,-316.02 141.82,-309.47 139.55,-316.09"/>
</a>
</g>
</g>
<!-- Node5 -->
<g id="Node000005" class="node">
<title>Node5</title>
<g id="a_Node000005"><a xlink:href="group__sgp30__base__driver.html#ga1fe1b66ea42eb2ebd65037f4b6dc754e" target="_top" xlink:title="initialize the chip">
<polygon fill="white" stroke="#666666" points="221,-296 160.75,-296 160.75,-276 221,-276 221,-296"/>
<text xml:space="preserve" text-anchor="middle" x="190.88" y="-282.5" font-family="Helvetica,sans-Serif" font-size="10.00">sgp30_init</text>
</a>
</g>
</g>
<!-- Node1&#45;&gt;Node5 -->
<g id="edge4_Node000001_Node000005" class="edge">
<title>Node1&#45;&gt;Node5</title>
<g id="a_edge4_Node000001_Node000005"><a xlink:title=" ">
<path fill="none" stroke="#63b8ff" d="M60.28,-230.37C75.8,-240.8 101.1,-256.74 124.75,-267 132.55,-270.38 141.13,-273.37 149.43,-275.91"/>
<polygon fill="#63b8ff" stroke="#63b8ff" points="148.44,-279.27 159.02,-278.68 150.38,-272.55 148.44,-279.27"/>
</a>
</g>
</g>
<!-- Node6 -->
<g id="Node000006" class="node">
<title>Node6</title>
<g id="a_Node000006"><a xlink:href="group__sgp30__interface__driver.html#ga58ed9f4096033cf156dd38105eb19229" target="_top" xlink:title="interface print format data">
<polygon fill="white" stroke="#666666" points="249.12,-258 132.62,-258 132.62,-226 249.12,-226 249.12,-258"/>
<text xml:space="preserve" text-anchor="start" x="140.62" y="-244.5" font-family="Helvetica,sans-Serif" font-size="10.00">sgp30_interface_debug</text>
<text xml:space="preserve" text-anchor="middle" x="190.88" y="-232.5" font-family="Helvetica,sans-Serif" font-size="10.00">_print</text>
</a>
</g>
</g>
<!-- Node1&#45;&gt;Node6 -->
<g id="edge5_Node000001_Node000006" class="edge">
<title>Node1&#45;&gt;Node6</title>
<g id="a_edge5_Node000001_Node000006"><a xlink:title=" ">
<path fill="none" stroke="#63b8ff" d="M89.12,-226.66C99.17,-228.19 110.1,-229.85 120.92,-231.5"/>
<polygon fill="#63b8ff" stroke="#63b8ff" points="120.22,-234.94 130.63,-232.98 121.27,-228.01 120.22,-234.94"/>
</a>
</g>
</g>
<!-- Node7 -->
<g id="Node000007" class="node">
<title>Node7</title>
<g id="a_Node000007"><a xlink:href="group__sgp30__interface__driver.html#ga50348389d4800a6c5ddba9f0d10b2610" target="_top" xlink:title="interface delay ms">
<polygon fill="white" stroke="#666666" points="257,-208 124.75,-208 124.75,-188 257,-188 257,-208"/>
<text xml:space="preserve" text-anchor="middle" x="190.88" y="-194.5" font-family="Helvetica,sans-Serif" font-size="10.00">sgp30_interface_delay_ms</text>
</a>
</g>
</g>
<!-- Node1&#45;&gt;Node7 -->
<g id="edge6_Node000001_Node000007" class="edge">
<title>Node1&#45;&gt;Node7</title>
<g id="a_edge6_Node000001_Node000007"><a xlink:title=" ">
<path fill="none" stroke="#63b8ff" d="M89.12,-213.34C96.77,-212.17 104.93,-210.93 113.17,-209.68"/>
<polygon fill="#63b8ff" stroke="#63b8ff" points="113.56,-213.16 122.92,-208.19 112.51,-206.24 113.56,-213.16"/>
</a>
</g>
</g>
<!-- Node8 -->
<g id="Node000008" class="node">
<title>Node8</title>
<g id="a_Node000008"><a xlink:href="group__sgp30__interface__driver.html#ga926f370b1be1a3ef51989b55e594b449" target="_top" xlink:title="interface iic bus deinit">
<polygon fill="white" stroke="#666666" points="240.88,-170 140.88,-170 140.88,-138 240.88,-138 240.88,-170"/>
<text xml:space="preserve" text-anchor="start" x="148.88" y="-156.5" font-family="Helvetica,sans-Serif" font-size="10.00">sgp30_interface_iic</text>
<text xml:space="preserve" text-anchor="middle" x="190.88" y="-144.5" font-family="Helvetica,sans-Serif" font-size="10.00">_deinit</text>
</a>
</g>
</g>
<!-- Node1&#45;&gt;Node8 -->
<g id="edge7_Node000001_Node000008" class="edge">
<title>Node1&#45;&gt;Node8</title>
<g id="a_edge7_Node000001_Node000008"><a xlink:title=" ">
<path fill="none" stroke="#63b8ff" d="M64.01,-209.63C79.92,-200.96 103.52,-188.52 124.75,-179 127.91,-177.58 131.17,-176.17 134.48,-174.78"/>
<polygon fill="#63b8ff" stroke="#63b8ff" points="135.78,-178.03 143.71,-171.01 133.13,-171.55 135.78,-178.03"/>
</a>
</g>
</g>
<!-- Node9 -->
<g id="Node000009" class="node">
<title>Node9</title>
<g id="a_Node000009"><a xlink:href="group__sgp30__interface__driver.html#ga18907ebdd98d9486a319672dbf2bf6ea" target="_top" xlink:title="interface iic bus init">
<polygon fill="white" stroke="#666666" points="249.88,-120 131.88,-120 131.88,-100 249.88,-100 249.88,-120"/>
<text xml:space="preserve" text-anchor="middle" x="190.88" y="-106.5" font-family="Helvetica,sans-Serif" font-size="10.00">sgp30_interface_iic_init</text>
</a>
</g>
</g>
<!-- Node1&#45;&gt;Node9 -->
<g id="edge8_Node000001_Node000009" class="edge">
<title>Node1&#45;&gt;Node9</title>
<g id="a_edge8_Node000001_Node000009"><a xlink:title=" ">
<path fill="none" stroke="#63b8ff" d="M51.6,-209.55C63.43,-190.61 91.01,-150.56 124.75,-129 127.01,-127.56 129.38,-126.22 131.83,-124.98"/>
<polygon fill="#63b8ff" stroke="#63b8ff" points="133.09,-128.25 140.84,-121.03 130.28,-121.84 133.09,-128.25"/>
</a>
</g>
</g>
<!-- Node10 -->
<g id="Node000010" class="node">
<title>Node10</title>
<g id="a_Node000010"><a xlink:href="group__sgp30__interface__driver.html#ga4ce7105615630997176458e9498ad17b" target="_top" xlink:title="interface iic bus read command">
<polygon fill="white" stroke="#666666" points="240.88,-82 140.88,-82 140.88,-50 240.88,-50 240.88,-82"/>
<text xml:space="preserve" text-anchor="start" x="148.88" y="-68.5" font-family="Helvetica,sans-Serif" font-size="10.00">sgp30_interface_iic</text>
<text xml:space="preserve" text-anchor="middle" x="190.88" y="-56.5" font-family="Helvetica,sans-Serif" font-size="10.00">_read_cmd</text>
</a>
</g>
</g>
<!-- Node1&#45;&gt;Node10 -->
<g id="edge9_Node000001_Node000010" class="edge">
<title>Node1&#45;&gt;Node10</title>
<g id="a_edge9_Node000001_Node000010"><a xlink:title=" ">
<path fill="none" stroke="#63b8ff" d="M49.02,-209.73C58.09,-185.63 83.88,-124.93 124.75,-91 126.68,-89.4 128.73,-87.89 130.85,-86.47"/>
<polygon fill="#63b8ff" stroke="#63b8ff" points="132.4,-89.62 139.31,-81.59 128.9,-83.56 132.4,-89.62"/>
</a>
</g>
</g>
<!-- Node11 -->
<g id="Node000011" class="node">
<title>Node11</title>
<g id="a_Node000011"><a xlink:href="group__sgp30__interface__driver.html#ga1627ce9631a152caf06ad140e4392c63" target="_top" xlink:title="interface iic bus write command">
<polygon fill="white" stroke="#666666" points="240.88,-32 140.88,-32 140.88,0 240.88,0 240.88,-32"/>
<text xml:space="preserve" text-anchor="start" x="148.88" y="-18.5" font-family="Helvetica,sans-Serif" font-size="10.00">sgp30_interface_iic</text>
<text xml:space="preserve" text-anchor="middle" x="190.88" y="-6.5" font-family="Helvetica,sans-Serif" font-size="10.00">_write_cmd</text>
</a>
</g>
</g>
<!-- Node1&#45;&gt;Node11 -->
<g id="edge10_Node000001_Node000011" class="edge">
<title>Node1&#45;&gt;Node11</title>
<g id="a_edge10_Node000001_Node000011"><a xlink:title=" ">
<path fill="none" stroke="#63b8ff" d="M47.13,-209.5C52.74,-179.13 73,-90.18 124.75,-41 126.6,-39.24 128.6,-37.6 130.69,-36.07"/>
<polygon fill="#63b8ff" stroke="#63b8ff" points="132.46,-39.09 139.13,-30.86 128.78,-33.13 132.46,-39.09"/>
</a>
</g>
</g>
<!-- Node2&#45;&gt;Node3 -->
<g id="edge2_Node000002_Node000003" class="edge">
<title>Node2&#45;&gt;Node3</title>
<g id="a_edge2_Node000002_Node000003"><a xlink:title=" ">
<path fill="none" stroke="#63b8ff" d="M226.39,-395.5C242.82,-393.35 262.9,-390.73 281.45,-388.31"/>
<polygon fill="#63b8ff" stroke="#63b8ff" points="281.79,-391.8 291.25,-387.03 280.88,-384.86 281.79,-391.8"/>
</a>
</g>
</g>
</g>
</svg>
