<?xml version="1.0" encoding="UTF-8" standalone="no"?>
<!DOCTYPE svg PUBLIC "-//W3C//DTD SVG 1.1//EN"
 "http://www.w3.org/Graphics/SVG/1.1/DTD/svg11.dtd">
<!-- Generated by graphviz version 13.1.0 (20250701.0955)
 -->
<!-- Title: sgp30_basic_deinit Pages: 1 -->
<svg width="341pt" height="28pt"
 viewBox="0.00 0.00 341.00 28.00" xmlns="http://www.w3.org/2000/svg" xmlns:xlink="http://www.w3.org/1999/xlink">
<g id="graph0" class="graph" transform="scale(1 1) rotate(0) translate(4 24)">
<title>sgp30_basic_deinit</title>
<!-- Node1 -->
<g id="Node000001" class="node">
<title>Node1</title>
<g id="a_Node000001"><a xlink:title="basic example deinit">
<polygon fill="#999999" stroke="#666666" points="99.25,-20 0,-20 0,0 99.25,0 99.25,-20"/>
<text xml:space="preserve" text-anchor="middle" x="49.62" y="-6.5" font-family="Helvetica,sans-Serif" font-size="10.00">sgp30_basic_deinit</text>
</a>
</g>
</g>
<!-- Node2 -->
<g id="Node000002" class="node">
<title>Node2</title>
<g id="a_Node000002"><a xlink:href="group__sgp30__base__driver.html#ga3e76808777df8bc665ef7d0a2f577545" target="_top" xlink:title="close the chip">
<polygon fill="white" stroke="#666666" points="206,-20 135.25,-20 135.25,0 206,0 206,-20"/>
<text xml:space="preserve" text-anchor="middle" x="170.62" y="-6.5" font-family="Helvetica,sans-Serif" font-size="10.00">sgp30_deinit</text>
</a>
</g>
</g>
<!-- Node1&#45;&gt;Node2 -->
<g id="edge1_Node000001_Node000002" class="edge">
<title>Node1&#45;&gt;Node2</title>
<g id="a_edge1_Node000001_Node000002"><a xlink:title=" ">
<path fill="none" stroke="#63b8ff" d="M99.71,-10C107.54,-10 115.61,-10 123.36,-10"/>
<polygon fill="#63b8ff" stroke="#63b8ff" points="123.3,-13.5 133.3,-10 123.3,-6.5 123.3,-13.5"/>
</a>
</g>
</g>
<!-- Node3 -->
<g id="Node000003" class="node">
<title>Node3</title>
<g id="a_Node000003"><a xlink:href="group__sgp30__base__driver.html#gadb2f24c981a20bed9fd9bc0a0f1a11ad" target="_top" xlink:title="soft reset the chip">
<polygon fill="white" stroke="#666666" points="333,-20 242,-20 242,0 333,0 333,-20"/>
<text xml:space="preserve" text-anchor="middle" x="287.5" y="-6.5" font-family="Helvetica,sans-Serif" font-size="10.00">sgp30_soft_reset</text>
</a>
</g>
</g>
<!-- Node2&#45;&gt;Node3 -->
<g id="edge2_Node000002_Node000003" class="edge">
<title>Node2&#45;&gt;Node3</title>
<g id="a_edge2_Node000002_Node000003"><a xlink:title=" ">
<path fill="none" stroke="#63b8ff" d="M206.4,-10C213.94,-10 222.1,-10 230.23,-10"/>
<polygon fill="#63b8ff" stroke="#63b8ff" points="230.13,-13.5 240.13,-10 230.13,-6.5 230.13,-13.5"/>
</a>
</g>
</g>
</g>
</svg>
