<?xml version="1.0" encoding="UTF-8" standalone="no"?>
<!DOCTYPE svg PUBLIC "-//W3C//DTD SVG 1.1//EN"
 "http://www.w3.org/Graphics/SVG/1.1/DTD/svg11.dtd">
<!-- Generated by graphviz version 13.1.0 (20250701.0955)
 -->
<!-- Title: sgp30_advance_set_absolute_humidity Pages: 1 -->
<svg width="315pt" height="90pt"
 viewBox="0.00 0.00 315.00 90.00" xmlns="http://www.w3.org/2000/svg" xmlns:xlink="http://www.w3.org/1999/xlink">
<g id="graph0" class="graph" transform="scale(1 1) rotate(0) translate(4 86)">
<title>sgp30_advance_set_absolute_humidity</title>
<!-- Node1 -->
<g id="Node000001" class="node">
<title>Node1</title>
<g id="a_Node000001"><a xlink:title="advance example set the absolute humidity">
<polygon fill="#999999" stroke="#666666" points="145,-57 0,-57 0,-25 145,-25 145,-57"/>
<text xml:space="preserve" text-anchor="start" x="8" y="-43.5" font-family="Helvetica,sans-Serif" font-size="10.00">sgp30_advance_set_absolute</text>
<text xml:space="preserve" text-anchor="middle" x="72.5" y="-31.5" font-family="Helvetica,sans-Serif" font-size="10.00">_humidity</text>
</a>
</g>
</g>
<!-- Node2 -->
<g id="Node000002" class="node">
<title>Node2</title>
<g id="a_Node000002"><a xlink:href="group__sgp30__base__driver.html#ga2343ff48958762bfb8dcf2f1b48eebed" target="_top" xlink:title="convert the absolute humidity to the register data">
<polygon fill="white" stroke="#666666" points="307.25,-82 181,-82 181,-50 307.25,-50 307.25,-82"/>
<text xml:space="preserve" text-anchor="start" x="189" y="-68.5" font-family="Helvetica,sans-Serif" font-size="10.00">sgp30_absolute_humidity</text>
<text xml:space="preserve" text-anchor="middle" x="244.12" y="-56.5" font-family="Helvetica,sans-Serif" font-size="10.00">_convert_to_register</text>
</a>
</g>
</g>
<!-- Node1&#45;&gt;Node2 -->
<g id="edge1_Node000001_Node000002" class="edge">
<title>Node1&#45;&gt;Node2</title>
<g id="a_edge1_Node000001_Node000002"><a xlink:title=" ">
<path fill="none" stroke="#63b8ff" d="M145.44,-51.6C153.41,-52.78 161.55,-53.98 169.55,-55.16"/>
<polygon fill="#63b8ff" stroke="#63b8ff" points="168.83,-58.59 179.24,-56.58 169.85,-51.66 168.83,-58.59"/>
</a>
</g>
</g>
<!-- Node3 -->
<g id="Node000003" class="node">
<title>Node3</title>
<g id="a_Node000003"><a xlink:href="group__sgp30__base__driver.html#gaa2bad69ff22a7cd798a97546146676fd" target="_top" xlink:title="set the chip absolute_humidity">
<polygon fill="white" stroke="#666666" points="295.62,-32 192.62,-32 192.62,0 295.62,0 295.62,-32"/>
<text xml:space="preserve" text-anchor="start" x="200.62" y="-18.5" font-family="Helvetica,sans-Serif" font-size="10.00">sgp30_set_absolute</text>
<text xml:space="preserve" text-anchor="middle" x="244.12" y="-6.5" font-family="Helvetica,sans-Serif" font-size="10.00">_humidity</text>
</a>
</g>
</g>
<!-- Node1&#45;&gt;Node3 -->
<g id="edge2_Node000001_Node000003" class="edge">
<title>Node1&#45;&gt;Node3</title>
<g id="a_edge2_Node000001_Node000003"><a xlink:title=" ">
<path fill="none" stroke="#63b8ff" d="M145.44,-30.4C157.22,-28.66 169.34,-26.87 180.87,-25.18"/>
<polygon fill="#63b8ff" stroke="#63b8ff" points="181.28,-28.65 190.66,-23.73 180.26,-21.73 181.28,-28.65"/>
</a>
</g>
</g>
</g>
</svg>
