<?xml version="1.0" encoding="UTF-8" standalone="no"?>
<!DOCTYPE svg PUBLIC "-//W3C//DTD SVG 1.1//EN"
 "http://www.w3.org/Graphics/SVG/1.1/DTD/svg11.dtd">
<!-- Generated by graphviz version 13.1.0 (20250701.0955)
 -->
<!-- Title: sgp30_advance_deinit Pages: 1 -->
<svg width="355pt" height="28pt"
 viewBox="0.00 0.00 355.00 28.00" xmlns="http://www.w3.org/2000/svg" xmlns:xlink="http://www.w3.org/1999/xlink">
<g id="graph0" class="graph" transform="scale(1 1) rotate(0) translate(4 24)">
<title>sgp30_advance_deinit</title>
<!-- Node1 -->
<g id="Node000001" class="node">
<title>Node1</title>
<g id="a_Node000001"><a xlink:title="advance example deinit">
<polygon fill="#999999" stroke="#666666" points="112.75,-20 0,-20 0,0 112.75,0 112.75,-20"/>
<text xml:space="preserve" text-anchor="middle" x="56.38" y="-6.5" font-family="Helvetica,sans-Serif" font-size="10.00">sgp30_advance_deinit</text>
</a>
</g>
</g>
<!-- Node2 -->
<g id="Node000002" class="node">
<title>Node2</title>
<g id="a_Node000002"><a xlink:href="group__sgp30__base__driver.html#ga3e76808777df8bc665ef7d0a2f577545" target="_top" xlink:title="close the chip">
<polygon fill="white" stroke="#666666" points="219.5,-20 148.75,-20 148.75,0 219.5,0 219.5,-20"/>
<text xml:space="preserve" text-anchor="middle" x="184.12" y="-6.5" font-family="Helvetica,sans-Serif" font-size="10.00">sgp30_deinit</text>
</a>
</g>
</g>
<!-- Node1&#45;&gt;Node2 -->
<g id="edge1_Node000001_Node000002" class="edge">
<title>Node1&#45;&gt;Node2</title>
<g id="a_edge1_Node000001_Node000002"><a xlink:title=" ">
<path fill="none" stroke="#63b8ff" d="M112.9,-10C121.03,-10 129.33,-10 137.24,-10"/>
<polygon fill="#63b8ff" stroke="#63b8ff" points="136.98,-13.5 146.98,-10 136.98,-6.5 136.98,-13.5"/>
</a>
</g>
</g>
<!-- Node3 -->
<g id="Node000003" class="node">
<title>Node3</title>
<g id="a_Node000003"><a xlink:href="group__sgp30__base__driver.html#gadb2f24c981a20bed9fd9bc0a0f1a11ad" target="_top" xlink:title="soft reset the chip">
<polygon fill="white" stroke="#666666" points="346.5,-20 255.5,-20 255.5,0 346.5,0 346.5,-20"/>
<text xml:space="preserve" text-anchor="middle" x="301" y="-6.5" font-family="Helvetica,sans-Serif" font-size="10.00">sgp30_soft_reset</text>
</a>
</g>
</g>
<!-- Node2&#45;&gt;Node3 -->
<g id="edge2_Node000002_Node000003" class="edge">
<title>Node2&#45;&gt;Node3</title>
<g id="a_edge2_Node000002_Node000003"><a xlink:title=" ">
<path fill="none" stroke="#63b8ff" d="M219.9,-10C227.44,-10 235.6,-10 243.73,-10"/>
<polygon fill="#63b8ff" stroke="#63b8ff" points="243.63,-13.5 253.63,-10 243.63,-6.5 243.63,-13.5"/>
</a>
</g>
</g>
</g>
</svg>
