<?xml version="1.0" encoding="UTF-8" standalone="no"?>
<!DOCTYPE svg PUBLIC "-//W3C//DTD SVG 1.1//EN"
 "http://www.w3.org/Graphics/SVG/1.1/DTD/svg11.dtd">
<!-- Generated by graphviz version 13.1.0 (20250701.0955)
 -->
<!-- Title: sgp30_advance_init Pages: 1 -->
<svg width="406pt" height="418pt"
 viewBox="0.00 0.00 406.00 418.00" xmlns="http://www.w3.org/2000/svg" xmlns:xlink="http://www.w3.org/1999/xlink">
<g id="graph0" class="graph" transform="scale(1 1) rotate(0) translate(4 414)">
<title>sgp30_advance_init</title>
<!-- Node1 -->
<g id="Node000001" class="node">
<title>Node1</title>
<g id="a_Node000001"><a xlink:title="advance example init">
<polygon fill="#999999" stroke="#666666" points="102.25,-230 0,-230 0,-210 102.25,-210 102.25,-230"/>
<text xml:space="preserve" text-anchor="middle" x="51.12" y="-216.5" font-family="Helvetica,sans-Serif" font-size="10.00">sgp30_advance_init</text>
</a>
</g>
</g>
<!-- Node2 -->
<g id="Node000002" class="node">
<title>Node2</title>
<g id="a_Node000002"><a xlink:href="group__sgp30__base__driver.html#ga3e76808777df8bc665ef7d0a2f577545" target="_top" xlink:title="close the chip">
<polygon fill="white" stroke="#666666" points="239.75,-410 169,-410 169,-390 239.75,-390 239.75,-410"/>
<text xml:space="preserve" text-anchor="middle" x="204.38" y="-396.5" font-family="Helvetica,sans-Serif" font-size="10.00">sgp30_deinit</text>
</a>
</g>
</g>
<!-- Node1&#45;&gt;Node2 -->
<g id="edge1_Node000001_Node000002" class="edge">
<title>Node1&#45;&gt;Node2</title>
<g id="a_edge1_Node000001_Node000002"><a xlink:title=" ">
<path fill="none" stroke="#63b8ff" d="M55.04,-230.37C63.34,-258.03 89.67,-334.27 138.25,-376 144.08,-381.01 151.06,-385.02 158.24,-388.2"/>
<polygon fill="#63b8ff" stroke="#63b8ff" points="156.8,-391.4 167.39,-391.76 159.34,-384.88 156.8,-391.4"/>
</a>
</g>
</g>
<!-- Node3 -->
<g id="Node000003" class="node">
<title>Node3</title>
<g id="a_Node000003"><a xlink:href="group__sgp30__base__driver.html#gadb2f24c981a20bed9fd9bc0a0f1a11ad" target="_top" xlink:title="soft reset the chip">
<polygon fill="white" stroke="#666666" points="397.5,-391 306.5,-391 306.5,-371 397.5,-371 397.5,-391"/>
<text xml:space="preserve" text-anchor="middle" x="352" y="-377.5" font-family="Helvetica,sans-Serif" font-size="10.00">sgp30_soft_reset</text>
</a>
</g>
</g>
<!-- Node1&#45;&gt;Node3 -->
<g id="edge11_Node000001_Node000003" class="edge">
<title>Node1&#45;&gt;Node3</title>
<g id="a_edge11_Node000001_Node000003"><a xlink:title=" ">
<path fill="none" stroke="#63b8ff" d="M56.08,-230.33C65.9,-254.46 93.87,-314.66 138.25,-343 163.64,-359.21 240.88,-370.04 294.94,-375.86"/>
<polygon fill="#63b8ff" stroke="#63b8ff" points="294.28,-379.31 304.59,-376.86 295.01,-372.34 294.28,-379.31"/>
</a>
</g>
</g>
<!-- Node4 -->
<g id="Node000004" class="node">
<title>Node4</title>
<g id="a_Node000004"><a xlink:href="group__sgp30__base__driver.html#gae910b4ed6af6de8d662e430b00d15bdd" target="_top" xlink:title="initialize the chip iaq">
<polygon fill="white" stroke="#666666" points="243.5,-334 165.25,-334 165.25,-314 243.5,-314 243.5,-334"/>
<text xml:space="preserve" text-anchor="middle" x="204.38" y="-320.5" font-family="Helvetica,sans-Serif" font-size="10.00">sgp30_iaq_init</text>
</a>
</g>
</g>
<!-- Node1&#45;&gt;Node4 -->
<g id="edge3_Node000001_Node000004" class="edge">
<title>Node1&#45;&gt;Node4</title>
<g id="a_edge3_Node000001_Node000004"><a xlink:title=" ">
<path fill="none" stroke="#63b8ff" d="M59.7,-230.28C73.39,-248.14 104.02,-284.88 138.25,-305 143.2,-307.91 148.63,-310.4 154.17,-312.52"/>
<polygon fill="#63b8ff" stroke="#63b8ff" points="152.85,-315.77 163.44,-315.69 155.11,-309.15 152.85,-315.77"/>
</a>
</g>
</g>
<!-- Node5 -->
<g id="Node000005" class="node">
<title>Node5</title>
<g id="a_Node000005"><a xlink:href="group__sgp30__base__driver.html#ga1fe1b66ea42eb2ebd65037f4b6dc754e" target="_top" xlink:title="initialize the chip">
<polygon fill="white" stroke="#666666" points="234.5,-296 174.25,-296 174.25,-276 234.5,-276 234.5,-296"/>
<text xml:space="preserve" text-anchor="middle" x="204.38" y="-282.5" font-family="Helvetica,sans-Serif" font-size="10.00">sgp30_init</text>
</a>
</g>
</g>
<!-- Node1&#45;&gt;Node5 -->
<g id="edge4_Node000001_Node000005" class="edge">
<title>Node1&#45;&gt;Node5</title>
<g id="a_edge4_Node000001_Node000005"><a xlink:title=" ">
<path fill="none" stroke="#63b8ff" d="M68.75,-230.48C85.72,-240.84 113.06,-256.6 138.25,-267 146.11,-270.25 154.71,-273.17 163.02,-275.7"/>
<polygon fill="#63b8ff" stroke="#63b8ff" points="162.03,-279.06 172.61,-278.47 163.97,-272.33 162.03,-279.06"/>
</a>
</g>
</g>
<!-- Node6 -->
<g id="Node000006" class="node">
<title>Node6</title>
<g id="a_Node000006"><a xlink:href="group__sgp30__interface__driver.html#ga58ed9f4096033cf156dd38105eb19229" target="_top" xlink:title="interface print format data">
<polygon fill="white" stroke="#666666" points="262.62,-258 146.12,-258 146.12,-226 262.62,-226 262.62,-258"/>
<text xml:space="preserve" text-anchor="start" x="154.12" y="-244.5" font-family="Helvetica,sans-Serif" font-size="10.00">sgp30_interface_debug</text>
<text xml:space="preserve" text-anchor="middle" x="204.38" y="-232.5" font-family="Helvetica,sans-Serif" font-size="10.00">_print</text>
</a>
</g>
</g>
<!-- Node1&#45;&gt;Node6 -->
<g id="edge5_Node000001_Node000006" class="edge">
<title>Node1&#45;&gt;Node6</title>
<g id="a_edge5_Node000001_Node000006"><a xlink:title=" ">
<path fill="none" stroke="#63b8ff" d="M102.49,-227.33C112.76,-228.82 123.73,-230.42 134.51,-231.98"/>
<polygon fill="#63b8ff" stroke="#63b8ff" points="133.75,-235.41 144.15,-233.39 134.76,-228.48 133.75,-235.41"/>
</a>
</g>
</g>
<!-- Node7 -->
<g id="Node000007" class="node">
<title>Node7</title>
<g id="a_Node000007"><a xlink:href="group__sgp30__interface__driver.html#ga50348389d4800a6c5ddba9f0d10b2610" target="_top" xlink:title="interface delay ms">
<polygon fill="white" stroke="#666666" points="270.5,-208 138.25,-208 138.25,-188 270.5,-188 270.5,-208"/>
<text xml:space="preserve" text-anchor="middle" x="204.38" y="-194.5" font-family="Helvetica,sans-Serif" font-size="10.00">sgp30_interface_delay_ms</text>
</a>
</g>
</g>
<!-- Node1&#45;&gt;Node7 -->
<g id="edge6_Node000001_Node000007" class="edge">
<title>Node1&#45;&gt;Node7</title>
<g id="a_edge6_Node000001_Node000007"><a xlink:title=" ">
<path fill="none" stroke="#63b8ff" d="M102.49,-212.67C110.29,-211.54 118.49,-210.35 126.71,-209.15"/>
<polygon fill="#63b8ff" stroke="#63b8ff" points="127,-212.65 136.4,-207.74 126,-205.72 127,-212.65"/>
</a>
</g>
</g>
<!-- Node8 -->
<g id="Node000008" class="node">
<title>Node8</title>
<g id="a_Node000008"><a xlink:href="group__sgp30__interface__driver.html#ga926f370b1be1a3ef51989b55e594b449" target="_top" xlink:title="interface iic bus deinit">
<polygon fill="white" stroke="#666666" points="254.38,-170 154.38,-170 154.38,-138 254.38,-138 254.38,-170"/>
<text xml:space="preserve" text-anchor="start" x="162.38" y="-156.5" font-family="Helvetica,sans-Serif" font-size="10.00">sgp30_interface_iic</text>
<text xml:space="preserve" text-anchor="middle" x="204.38" y="-144.5" font-family="Helvetica,sans-Serif" font-size="10.00">_deinit</text>
</a>
</g>
</g>
<!-- Node1&#45;&gt;Node8 -->
<g id="edge7_Node000001_Node000008" class="edge">
<title>Node1&#45;&gt;Node8</title>
<g id="a_edge7_Node000001_Node000008"><a xlink:title=" ">
<path fill="none" stroke="#63b8ff" d="M72.8,-209.6C90.12,-201.02 115.58,-188.73 138.25,-179 141.59,-177.57 145.04,-176.13 148.53,-174.7"/>
<polygon fill="#63b8ff" stroke="#63b8ff" points="149.66,-178.02 157.64,-171.05 147.06,-171.52 149.66,-178.02"/>
</a>
</g>
</g>
<!-- Node9 -->
<g id="Node000009" class="node">
<title>Node9</title>
<g id="a_Node000009"><a xlink:href="group__sgp30__interface__driver.html#ga18907ebdd98d9486a319672dbf2bf6ea" target="_top" xlink:title="interface iic bus init">
<polygon fill="white" stroke="#666666" points="263.38,-120 145.38,-120 145.38,-100 263.38,-100 263.38,-120"/>
<text xml:space="preserve" text-anchor="middle" x="204.38" y="-106.5" font-family="Helvetica,sans-Serif" font-size="10.00">sgp30_interface_iic_init</text>
</a>
</g>
</g>
<!-- Node1&#45;&gt;Node9 -->
<g id="edge8_Node000001_Node000009" class="edge">
<title>Node1&#45;&gt;Node9</title>
<g id="a_edge8_Node000001_Node000009"><a xlink:title=" ">
<path fill="none" stroke="#63b8ff" d="M59.11,-209.57C72.3,-190.65 102.8,-150.66 138.25,-129 140.71,-127.5 143.3,-126.11 145.97,-124.82"/>
<polygon fill="#63b8ff" stroke="#63b8ff" points="147.28,-128.06 155.15,-120.96 144.57,-121.61 147.28,-128.06"/>
</a>
</g>
</g>
<!-- Node10 -->
<g id="Node000010" class="node">
<title>Node10</title>
<g id="a_Node000010"><a xlink:href="group__sgp30__interface__driver.html#ga4ce7105615630997176458e9498ad17b" target="_top" xlink:title="interface iic bus read command">
<polygon fill="white" stroke="#666666" points="254.38,-82 154.38,-82 154.38,-50 254.38,-50 254.38,-82"/>
<text xml:space="preserve" text-anchor="start" x="162.38" y="-68.5" font-family="Helvetica,sans-Serif" font-size="10.00">sgp30_interface_iic</text>
<text xml:space="preserve" text-anchor="middle" x="204.38" y="-56.5" font-family="Helvetica,sans-Serif" font-size="10.00">_read_cmd</text>
</a>
</g>
</g>
<!-- Node1&#45;&gt;Node10 -->
<g id="edge9_Node000001_Node000010" class="edge">
<title>Node1&#45;&gt;Node10</title>
<g id="a_edge9_Node000001_Node000010"><a xlink:title=" ">
<path fill="none" stroke="#63b8ff" d="M56.33,-209.74C66.7,-185.65 95.76,-124.96 138.25,-91 140.17,-89.46 142.2,-88.01 144.3,-86.65"/>
<polygon fill="#63b8ff" stroke="#63b8ff" points="145.65,-89.91 152.61,-81.92 142.18,-83.82 145.65,-89.91"/>
</a>
</g>
</g>
<!-- Node11 -->
<g id="Node000011" class="node">
<title>Node11</title>
<g id="a_Node000011"><a xlink:href="group__sgp30__interface__driver.html#ga1627ce9631a152caf06ad140e4392c63" target="_top" xlink:title="interface iic bus write command">
<polygon fill="white" stroke="#666666" points="254.38,-32 154.38,-32 154.38,0 254.38,0 254.38,-32"/>
<text xml:space="preserve" text-anchor="start" x="162.38" y="-18.5" font-family="Helvetica,sans-Serif" font-size="10.00">sgp30_interface_iic</text>
<text xml:space="preserve" text-anchor="middle" x="204.38" y="-6.5" font-family="Helvetica,sans-Serif" font-size="10.00">_write_cmd</text>
</a>
</g>
</g>
<!-- Node1&#45;&gt;Node11 -->
<g id="edge10_Node000001_Node000011" class="edge">
<title>Node1&#45;&gt;Node11</title>
<g id="a_edge10_Node000001_Node000011"><a xlink:title=" ">
<path fill="none" stroke="#63b8ff" d="M54.21,-209.92C60.93,-179.93 84.73,-90.3 138.25,-41 140.13,-39.27 142.15,-37.65 144.26,-36.14"/>
<polygon fill="#63b8ff" stroke="#63b8ff" points="146.02,-39.17 152.75,-30.98 142.39,-33.18 146.02,-39.17"/>
</a>
</g>
</g>
<!-- Node2&#45;&gt;Node3 -->
<g id="edge2_Node000002_Node000003" class="edge">
<title>Node2&#45;&gt;Node3</title>
<g id="a_edge2_Node000002_Node000003"><a xlink:title=" ">
<path fill="none" stroke="#63b8ff" d="M239.89,-395.5C256.32,-393.35 276.4,-390.73 294.95,-388.31"/>
<polygon fill="#63b8ff" stroke="#63b8ff" points="295.29,-391.8 304.75,-387.03 294.38,-384.86 295.29,-391.8"/>
</a>
</g>
</g>
</g>
</svg>
